<?xml version="1.0" standalone="no"?>
<!DOCTYPE svg PUBLIC "-//W3C//DTD SVG 20010904//EN"
 "http://www.w3.org/TR/2001/REC-SVG-20010904/DTD/svg10.dtd">
<svg version="1.0" xmlns="http://www.w3.org/2000/svg"
 width="1500.000000pt" height="1500.000000pt" viewBox="0 0 1500.000000 1500.000000"
 preserveAspectRatio="xMidYMid meet">
<metadata>
Created by potrace 1.14, written by Peter Selinger 2001-2017
</metadata>
<g transform="translate(0.000000,1500.000000) scale(0.100000,-0.100000)"
fill="#000000" stroke="none">
<path d="M0 7500 l0 -7500 7500 0 7500 0 0 7500 0 7500 -7500 0 -7500 0 0
-7500z m8415 6877 c110 -16 286 -45 390 -66 l190 -39 -1495 0 c-852 0 -1483 3
-1466 8 58 18 426 80 586 99 91 11 179 22 195 24 17 3 338 4 715 3 l685 -2
200 -27z m1640 -425 c98 -40 186 -77 195 -82 9 -6 -1102 -9 -2750 -9 -1727 0
-2759 3 -2749 9 9 5 85 37 170 70 85 34 170 67 189 75 30 12 391 14 2400 12
l2365 -2 180 -73z m849 -408 c65 -36 133 -74 150 -85 31 -19 -24 -19 -3553
-19 -1971 0 -3582 2 -3580 5 3 2 68 40 144 84 l140 80 3290 1 3290 0 119 -66z
m667 -426 l114 -83 -2092 -3 c-1150 -1 -3034 -1 -4187 0 l-2096 3 116 83 116
82 3958 0 3958 0 113 -82z m523 -420 l93 -83 -2344 -3 c-1288 -1 -3398 -1
-4688 0 l-2346 3 93 82 93 82 4503 1 4504 0 92 -82z m435 -418 l82 -90 -1701
0 -1702 0 -86 31 c-118 41 -293 84 -432 106 -105 16 -205 18 -1190 18 -987 0
-1084 -1 -1190 -18 -149 -23 -303 -61 -410 -100 l-85 -32 -1715 -2 -1714 -3
39 42 c22 24 60 64 85 91 l44 47 4946 0 4946 0 83 -90z m-7215 -338 c-9 -9
-160 -125 -193 -150 -14 -9 -334 -12 -1549 -10 l-1532 3 66 83 66 82 1576 0
c867 0 1572 -4 1566 -8z m7578 -74 l66 -83 -1534 -3 -1534 -2 -73 58 c-39 32
-90 71 -112 85 l-40 27 1581 0 1581 0 65 -82z m-4182 -36 c251 -53 317 -51
-1207 -51 -772 -1 -1403 1 -1403 3 0 7 173 46 269 61 69 11 297 13 1161 12
1074 -2 1075 -2 1180 -25z m-3874 -324 c-14 -18 -45 -59 -68 -90 l-43 -57
-1492 -1 c-821 0 -1493 3 -1493 8 0 4 25 44 56 90 l57 82 1505 0 1505 0 -27
-32z m4629 -7 c67 -51 149 -122 153 -132 2 -5 -939 -9 -2125 -9 l-2128 1 45
40 c25 22 74 62 110 89 l65 50 1914 0 1914 0 52 -39z m3738 -45 c31 -47 57
-87 57 -90 0 -3 -672 -6 -1492 -6 l-1493 0 -60 77 c-33 42 -64 83 -68 90 -7
11 262 13 1495 13 l1503 0 58 -84z m-8675 -421 l-42 -85 -1503 0 c-827 0
-1503 3 -1503 6 0 3 21 41 47 85 l48 79 1497 0 1498 0 -42 -85z m5379 5 c29
-41 52 -78 53 -82 0 -5 -1107 -8 -2460 -8 -1353 0 -2460 3 -2460 8 0 4 24 42
52 85 l53 77 2355 -2 2355 -3 52 -75z m3563 3 c25 -42 46 -81 48 -85 2 -4
-674 -8 -1502 -8 l-1505 0 -40 81 c-23 45 -41 83 -41 85 0 2 674 4 1498 4
l1497 0 45 -77z m-9084 -365 c-3 -13 -13 -51 -22 -85 l-16 -63 -1544 0 c-1229
0 -1544 3 -1544 13 0 6 18 45 40 85 l41 72 1526 0 1525 0 -6 -22z m5729 -43
c12 -33 25 -70 29 -82 l7 -23 -2650 0 c-1458 0 -2651 1 -2651 3 0 7 49 148 55
157 4 7 871 9 2597 8 l2590 -3 23 -60z m3585 -15 c22 -44 40 -82 40 -85 0 -3
-695 -5 -1543 -5 l-1544 0 -21 74 c-12 41 -22 79 -22 85 0 8 434 11 1525 11
l1525 0 40 -80z m-9404 -391 c-3 -34 -6 -73 -6 -85 l0 -24 -1610 0 c-885 0
-1610 2 -1610 4 0 2 12 30 26 62 14 33 30 69 35 82 l9 22 1581 0 1582 0 -7
-61z m5918 9 c3 -29 6 -68 6 -85 l0 -33 -2723 0 -2723 0 7 68 c5 37 8 75 8 85
1 16 137 17 2710 17 l2708 0 7 -52z m3679 -30 l36 -83 -1606 -3 c-884 -1
-1607 -1 -1609 0 -1 2 -6 40 -11 86 l-9 82 1582 0 1582 0 35 -82z m-9603 -423
l0 -85 -1690 0 -1690 0 30 82 c17 45 30 83 30 85 0 2 747 3 1660 3 l1660 0 0
-85z m5940 0 l0 -85 -2730 0 -2730 0 0 85 0 85 2730 0 2730 0 0 -85z m3824 7
c14 -42 26 -80 26 -85 0 -4 -758 -7 -1685 -7 l-1685 0 0 85 0 85 1659 0 1659
0 26 -78z m-9764 -417 l0 -85 -1751 0 c-1397 0 -1750 3 -1747 13 3 6 13 45 23
85 l19 72 1728 0 1728 0 0 -85z m5940 0 l0 -85 -2730 0 -2730 0 0 85 0 85
2730 0 2730 0 0 -85z m3956 0 c13 -44 24 -81 24 -82 0 -2 -787 -3 -1750 -3
l-1750 0 0 85 0 85 1726 -2 1727 -3 23 -80z m-10156 -345 l-265 -5 -3 -77 -3
-78 -1535 0 c-1457 0 -1535 1 -1530 18 2 9 10 44 16 77 7 33 14 63 17 68 2 4
806 6 1786 5 980 -1 1663 -5 1517 -8z m6200 -75 l0 -85 -2730 0 -2730 0 0 85
0 85 2730 0 2730 0 0 -85z m4061 -2 l16 -83 -1533 0 -1533 0 -3 78 -3 77 -265
5 c-146 3 538 5 1520 5 l1784 0 17 -82z m-11131 -361 c-63 -21 -159 -59 -214
-85 l-99 -47 -1114 0 -1115 0 6 28 c3 15 8 50 12 77 4 28 8 53 11 58 2 4 595
7 1316 7 l1312 -1 -115 -37z m7070 -47 l0 -85 -2730 0 -2730 0 0 85 0 85 2730
0 2730 0 0 -85z m4124 68 c3 -10 8 -40 11 -68 4 -27 9 -58 12 -67 4 -17 -54
-18 -1110 -18 l-1114 0 -98 46 c-54 25 -151 63 -214 85 l-116 39 1312 0 c1241
0 1312 -1 1317 -17z m-11976 -488 l-93 -85 -855 0 -856 0 7 73 c4 39 8 78 8
85 1 9 196 12 941 12 l940 0 -92 -85z m7852 0 l0 -85 -2730 0 -2730 0 0 85 0
85 2730 0 2730 0 0 -85z m4184 33 c3 -29 6 -68 6 -85 l0 -33 -857 0 -858 1
-87 84 -87 85 938 0 938 0 7 -52z m-12378 -440 l-54 -83 -711 -3 -711 -2 0 85
0 85 765 0 765 0 -54 -82z m8194 -3 l0 -85 -2730 0 -2730 0 0 85 0 85 2730 0
2730 0 0 -85z m4210 0 l0 -85 -712 0 -713 1 -52 84 -52 85 765 0 764 0 0 -85z
m-12614 -420 l-31 -85 -617 0 -618 0 0 85 0 85 648 0 649 0 -31 -85z m8404 0
l0 -85 -2730 0 -2730 0 0 85 0 85 2730 0 2730 0 0 -85z m4210 0 l0 -85 -619 0
c-581 0 -619 1 -624 18 -2 9 -16 47 -30 85 l-26 67 649 0 650 0 0 -85z
m-12714 -367 c-4 -24 -10 -62 -13 -85 l-6 -43 -558 0 -558 0 -5 33 c-3 17 -7
56 -10 85 l-5 52 581 0 581 0 -7 -42z m8504 -43 l0 -85 -2730 0 -2730 0 0 85
0 85 2730 0 2730 0 0 -85z m4189 13 c-4 -40 -8 -79 -8 -85 -1 -10 -120 -13
-560 -13 l-558 0 -12 69 c-6 39 -11 77 -11 85 0 14 61 16 578 16 l578 0 -7
-72z m-12729 -367 c0 -15 3 -56 6 -90 l7 -61 -530 0 -530 0 -6 28 c-3 15 -9
55 -13 90 l-7 62 537 0 536 0 0 -29z m8540 -61 l0 -90 -2730 0 -2730 0 0 90 0
90 2730 0 2730 0 0 -90z m4150 78 c0 -7 -5 -48 -12 -90 l-11 -78 -529 0 -528
0 0 83 c0 46 3 87 7 90 3 4 246 7 540 7 420 0 533 -3 533 -12z m-12629 -483
c10 -38 18 -76 18 -82 1 -10 -110 -13 -523 -13 l-524 0 -16 69 c-9 39 -16 77
-16 86 0 14 54 15 522 13 l522 -3 17 -70z m8479 -10 l0 -85 -2730 0 -2730 0 0
85 0 85 2730 0 2730 0 0 -85z m4080 75 c0 -5 -7 -43 -17 -85 l-16 -75 -524 0
c-287 0 -523 3 -523 7 0 4 8 43 17 85 l16 78 524 0 c332 0 523 -4 523 -10z
m-12409 -498 l38 -82 -556 2 -557 3 -22 83 -23 82 541 -2 541 -3 38 -83z
m8329 3 l0 -85 -2730 0 -2730 0 0 85 0 85 2730 0 2730 0 0 -85z m3980 58 c-5
-16 -16 -54 -25 -85 l-16 -58 -555 0 c-311 0 -554 4 -552 9 2 4 19 43 38 84
l35 76 542 1 542 0 -9 -27z m-12057 -465 l66 -83 -626 -3 c-344 -1 -627 -1
-629 1 -2 1 -16 40 -33 85 l-30 82 593 0 594 0 65 -82z m8077 -3 l0 -85 -2730
0 -2730 0 0 85 0 85 2730 0 2730 0 0 -85z m3860 78 c0 -5 -12 -43 -27 -85
l-26 -78 -629 0 c-345 0 -628 2 -628 4 0 2 21 28 46 58 25 29 53 65 62 81 l16
27 593 0 c326 0 593 -3 593 -7z m-11498 -494 c62 -45 115 -83 117 -85 3 -2
-353 -3 -789 -2 l-794 3 -32 75 c-18 41 -33 78 -33 83 -1 4 318 7 708 7 l709
0 114 -81z m7638 -4 l0 -85 -2730 0 -2730 0 0 85 0 85 2730 0 2730 0 0 -85z
m3691 38 c-11 -27 -27 -65 -35 -85 l-16 -38 -798 0 -797 0 60 39 c33 21 87 59
120 84 l60 46 712 1 713 0 -19 -47z m-10548 -384 c114 -25 276 -49 340 -49
l47 0 0 -50 0 -50 -1218 0 -1218 0 -42 85 -42 85 1020 0 c993 0 1023 -1 1113
-21z m6857 -64 l0 -85 -2730 0 -2730 0 0 85 0 85 2730 0 2730 0 0 -85z m3488
0 l-42 -85 -1218 0 -1218 0 0 50 0 50 45 0 c60 0 242 26 340 49 75 18 140 19
1107 20 l1028 1 -42 -85z m-227 -417 l-49 -83 -5941 -3 -5941 -2 -23 37 c-13
21 -35 59 -50 86 l-28 47 6040 0 6041 0 -49 -82z m-211 -333 c0 -3 -25 -42
-56 -85 l-56 -80 -5671 2 -5672 3 -52 75 c-29 41 -52 78 -53 83 0 4 2601 7
5780 7 3179 0 5780 -2 5780 -5z m-312 -432 c-8 -10 -38 -48 -68 -85 l-53 -68
-5348 0 -5347 0 -58 73 c-31 39 -62 78 -67 85 -8 9 1089 12 5473 12 5221 0
5482 -1 5468 -17z m-354 -416 c-10 -12 -45 -50 -78 -85 l-60 -62 -4976 0
-4977 0 -76 79 c-42 43 -77 81 -77 85 0 3 2309 6 5132 6 l5131 0 -19 -23z
m-404 -410 c-8 -7 -51 -46 -96 -85 l-81 -72 -4532 0 -4533 0 -94 81 c-52 44
-94 83 -94 85 0 2 2125 4 4722 4 3916 0 4720 -2 4708 -13z m-486 -406 c-5 -5
-55 -43 -112 -85 l-103 -76 -4009 0 -4008 0 -111 80 c-61 45 -111 83 -111 85
0 3 1904 5 4232 5 2423 0 4228 -4 4222 -9z m-649 -443 c-27 -17 -92 -56 -143
-85 l-94 -53 -3340 0 -3339 0 -140 81 c-76 44 -139 82 -139 85 0 2 1630 4
3623 4 l3622 0 -50 -32z m-766 -398 c-20 -10 -115 -51 -212 -89 l-177 -71
-2420 0 -2420 0 -177 71 c-97 38 -192 79 -212 89 -35 19 11 19 2809 19 2798 0
2844 0 2809 -19z m-1210 -405 c-8 -7 -435 -91 -594 -117 -135 -21 -167 -22
-958 -25 -781 -4 -825 -3 -974 17 -165 22 -476 78 -608 109 -80 19 -76 19
1529 20 885 1 1607 -1 1605 -4z"/>
</g>
</svg>
